<svg xmlns="http://www.w3.org/2000/svg" viewBox="0 0 291 291" width="291" height="291"><title>Internet Icons-ai</title><style>		.s0 { fill: #1e78c2 } 		.s1 { fill: #485361 } 	</style><g id="Layer 1"><g id="&lt;Group&gt;"><g id="&lt;Group&gt;"><path id="&lt;Compound Path&gt;" fill-rule="evenodd" class="s0" d="m259.3-471.3c-9.5 9.5-22.1 14.3-34.6 14.3-12.6 0-25.1-4.8-34.7-14.3l-23.5-23.6c-19.2-19.1-19.2-50.2 0-69.3 19.1-19.1 50.1-19.1 69.2 0l23.6 23.6c19.1 19.1 19.1 50.2 0 69.3zm-82-89.1l23.8 23.8 23.8-23.8c-7-5.4-15.4-8.1-23.8-8.1-8.4 0-16.8 2.7-23.8 8.1zm-7.1 54.6l23.8-23.7-23.8-23.8c-10.7 13.9-10.7 33.6 0 47.5zm82-27.8l-20-20-55.1 55.2 20 20c15.2 15.2 39.9 15.2 55.1 0 15.3-15.2 15.3-39.9 0-55.2z"></path><g id="&lt;Group&gt;"><path id="&lt;Compound Path&gt;" fill-rule="evenodd" class="s1" d="m194.4-467.5c-15.6 6.7-32.8 10.4-50.9 10.4-71.6 0-130-58.3-130-130 0-71.7 58.4-130 130-130 71.7 0 130 58.3 130 130 0 18-3.7 35.2-10.3 50.9-1.2-1.5-2.5-3-3.9-4.4l-3.7-3.7c4.5-11.8 7.3-24.5 7.8-37.8h-50.8q-0.1 2.5-0.2 4.9-4.9-1.1-9.9-1.3c0-1.2 0.1-2.4 0.1-3.6h-54.1v61.3c1.5 0 3 0 4.4-0.1 0.6 3.4 1.6 6.8 2.9 10q-3.6 0.1-7.3 0.1v43.2c9.7-1.7 18.7-8.4 26.6-18.7l7.3 7.3c-2.2 2.7-4.5 5.3-6.8 7.5q5.5-1.5 10.7-3.5l3.7 3.7c1.4 1.4 2.9 2.6 4.4 3.8zm55.4-173.5c-15-3.6-30.1-6.4-45.3-8.4 4.8 17 7.7 36.5 8.1 57.3h50.8c-0.7-18-5.5-35-13.3-50.1zm-74.2-61.7c10.4 10 19.1 24.7 25.5 42.7q21.7 2.7 42.9 7.4c-15.7-24.1-40-42.2-68.4-50.1zm-27.1 39.2q20.6 0.3 41.1 2.3c-9.9-25.2-24.6-42.5-41.1-45.4zm0 71.3h54.1c-0.5-21.3-3.8-41.4-9.3-58.7-14.9-1.6-29.8-2.5-44.8-2.6zm-105.5-60.5q21.3-4.7 43-7.4c6.4-18 15.1-32.8 25.5-42.8-28.5 7.9-52.7 26.1-68.5 50.2zm-19.3 60.5h50.8c0.4-20.9 3.3-40.3 8.1-57.3-15.2 2-30.4 4.8-45.3 8.4l-0.3-1.3c-7.9 15.2-12.6 32.2-13.3 50.2zm13.6 58.9c14.9 3.6 30.1 6.3 45.3 8.4-4.8-17.1-7.7-36.5-8.1-57.3h-50.8c0.7 18 5.4 35 13.3 50.1zm74.2 61.7c-10.4-10-19.1-24.7-25.5-42.8q-21.7-2.7-43-7.4c15.8 24.2 40 42.3 68.5 50.2zm27-39.3q-20.5-0.2-41-2.2c9.9 25.2 24.6 42.5 41 45.4zm0-71.3h-54c0.5 21.3 3.8 41.4 9.3 58.6 14.8 1.7 29.8 2.5 44.7 2.7zm0-71.3c-14.9 0.1-29.9 1-44.7 2.6-5.5 17.3-8.8 37.4-9.3 58.7h54zm0-53.2c-16.4 3-31.1 20.2-41 45.4q20.5-2 41-2.2z"></path></g></g><g id="&lt;Group&gt;"><g id="&lt;Group&gt;"><path id="&lt;Compound Path&gt;" fill-rule="evenodd" class="s1" d="m-323.5-457h-125.3c-13.8 0-25-11.3-25-25v-210c0-13.8 11.2-25 25-25h125.3c13.8 0 25 11.2 25 25v210c0 13.7-11.2 25-25 25zm-125.3-250c-8.3 0-15 6.7-15 15v210c0 8.2 6.7 15 15 15h125.3c8.3 0 15-6.8 15-15v-210c0-8.3-6.7-15-15-15z"></path></g><g id="&lt;Group&gt;"><path id="&lt;Compound Path&gt;" fill-rule="evenodd" class="s1" d="m-328.9-492.6h-114.4c-8.3 0-15-6.8-15-15v-158.9c0-8.2 6.7-15 15-15h114.4c8.2 0 15 6.8 15 15v158.9c0 8.2-6.8 15-15 15zm-114.4-178.9c-2.8 0-5 2.3-5 5v158.9c0 2.7 2.2 5 5 5h114.4c2.7 0 5-2.3 5-5v-158.9c0-2.7-2.3-5-5-5z"></path></g><g id="&lt;Group&gt;"><path id="&lt;Path&gt;" class="s1" d="m-368.3-474.3h-35.7v-10h35.7z"></path></g><g id="&lt;Group&gt;"><g id="&lt;Group&gt;"><path id="&lt;Path&gt;" class="s0" d="m-378.5-557.6c-4.2-4.2-11.1-4.3-15.3 0l-7.1-7.1c8.1-8.1 21.4-8.1 29.5 0z"></path></g><g id="&lt;Group&gt;"><path id="&lt;Path&gt;" class="s0" d="m-362.1-574c-13.3-13.2-34.8-13.2-48.1 0l-7-7.1c17.1-17.1 45-17.1 62.2 0z"></path></g><g id="&lt;Group&gt;"><path id="&lt;Path&gt;" class="s0" d="m-427.1-591l-7.1-7c26.5-26.5 69.6-26.5 96.1 0l-7 7c-22.6-22.6-59.4-22.6-82 0z"></path></g></g></g><g id="&lt;Group&gt;"><g id="&lt;Group&gt;"><g id="&lt;Group&gt;"><path id="&lt;Compound Path&gt;" fill-rule="evenodd" class="s1" d="m-828.3-535.3h-175.1c-13.8 0-25-11.2-25-25v-100.2c0-13.7 11.2-25 25-25h175.1c13.8 0 25 11.3 25 25v100.2c0 13.8-11.2 25-25 25zm-175.1-140.2c-8.3 0-15 6.8-15 15v100.2c0 8.3 6.7 15 15 15h175.1c8.2 0 15-6.7 15-15v-100.2c0-8.2-6.8-15-15-15z"></path></g></g><g id="&lt;Group&gt;"><g id="&lt;Group&gt;"><path id="&lt;Compound Path&gt;" fill-rule="evenodd" class="s1" d="m-800.9-488.6h-230c-8.2 0-15-6.8-15-15v-7.9c0-8.3 6.8-15 15-15h230c8.3 0 15 6.7 15 15v7.9c0 8.2-6.7 15-15 15zm-230-27.9c-2.7 0-5 2.3-5 5v7.9c0 2.7 2.3 5 5 5h230c2.8 0 5-2.3 5-5v-7.9c0-2.7-2.2-5-5-5z"></path></g></g><g id="&lt;Group&gt;"><path id="&lt;Compound Path&gt;" fill-rule="evenodd" class="s0" d="m-875.6-569.7h-80.6c-12.1 0-21.9-9.8-21.9-21.9 0-9 5.5-16.9 13.6-20.2 0.6-10.9 9.2-19.7 20.1-20.5 4.9-11.2 16.2-18.7 28.6-18.7 12.4 0 23.7 7.5 28.6 18.7 10.8 0.8 19.5 9.6 20.1 20.5 8 3.4 13.4 11.3 13.4 20.2 0 12.1-9.8 21.9-21.9 21.9zm-67.1-52.7c-6.5 0-11.9 5.3-11.9 11.9 0 0.5 0.1 1 0.1 1.7 0.4 2.6-1.3 5-4 5.5-5.5 1.1-9.6 6-9.6 11.7 0 6.6 5.4 11.9 11.9 11.9h80.6c6.6 0 11.9-5.3 11.9-11.9 0-5.6-4-10.5-9.5-11.6-2.6-0.6-4.3-3-4-5.6 0.1-0.7 0.2-1.2 0.2-1.7 0-6.6-5.4-11.9-11.9-11.9q-0.7 0-1.3 0.1c-2.4 0.2-4.6-1.3-5.3-3.6-2.6-8.9-11-15.1-20.3-15.1-9.3 0-17.7 6.2-20.3 15.1-0.7 2.3-3 3.8-5.3 3.6q-0.7-0.1-1.3-0.1z"></path></g></g><g id="&lt;Group&gt;"><g id="&lt;Group&gt;"><path id="&lt;Compound Path&gt;" fill-rule="evenodd" class="s0" d="m-500.7 220.5v-82.9c0-11.8 9.7-21.5 21.5-21.5h144.7c11.9 0 21.6 9.7 21.6 21.5v82.9c0 11.8-9.7 21.5-21.6 21.5h-144.7c-11.8 0-21.5-9.7-21.5-21.5zm10 0c0 6.3 5.2 11.5 11.5 11.5h144.7c6.4 0 11.6-5.2 11.6-11.5v-82.9c0-6.3-5.2-11.5-11.6-11.5h-144.7c-6.3 0-11.5 5.2-11.5 11.5z"></path><path id="&lt;Compound Path&gt;" fill-rule="evenodd" class="s0" d="m-298.5 262.3v3.5c0 8.1-6.6 14.7-14.7 14.7h-187.2c-8.1 0-14.7-6.6-14.7-14.7v-3.5c0-8.2 6.6-14.8 14.7-14.8h187.2c8.1 0 14.7 6.6 14.7 14.8zm-10 0c0-2.7-2.1-4.8-4.7-4.8h-187.2c-2.6 0-4.7 2.1-4.7 4.8v3.5c0 2.6 2.1 4.7 4.7 4.7h187.2c2.6 0 4.7-2.1 4.7-4.7z"></path></g><g id="&lt;Group&gt;"><path id="&lt;Compound Path&gt;" fill-rule="evenodd" class="s1" d="m-257.1 112.1c0 37.8-23.1 70.3-55.8 84.3v-11.1c12.1-5.9 22.5-14.7 30.3-25.5-8.3 1.7-16.7 3.1-25.2 4.1q-2.3 6.4-5.1 11.9v-30.3c2-8.8 3.2-18.4 3.5-28.4h-18.7c-2-0.7-4.1-1-6.4-1h-105.7q-0.1-2-0.1-4c0-50.5 41.1-91.6 91.6-91.6 50.5 0 91.6 41.1 91.6 91.6zm-135.9-41.4c-9.7 1.4-19.4 3.2-29 5.5-4.6 9.4-7.5 19.8-8.2 30.9h32.1c0.4-13.1 2.2-25.4 5.1-36.4zm3.3-10.5c3.6-10 8.3-18.5 13.8-25.1-15.8 5.6-29.4 15.9-39 29.3 8.3-1.8 16.7-3.1 25.2-4.2zm36 7.5q-14.3 0.2-28.4 1.7c-3.4 11.1-5.5 24-6 37.7h34.4zm0-36.5c-9.7 2.7-18.4 13-24.7 27.8q12.3-1.1 24.7-1.3zm10 26.5q12.3 0.1 24.6 1.3c-6.2-14.9-14.9-25.1-24.6-27.8zm34.3 49.4c-0.4-13.7-2.5-26.5-5.9-37.7q-14.2-1.5-28.4-1.7v39.4zm26.8-42.7c-9.6-13.3-23.2-23.7-39-29.3 5.5 6.6 10.2 15.1 13.8 25.1 8.5 1.1 16.9 2.5 25.2 4.2zm-21.9 6.3c2.9 11 4.7 23.3 5.1 36.4h32.1c-0.7-11-3.6-21.5-8.2-30.9-9.6-2.3-19.3-4.1-29-5.5zm37.2 46.4h-32.1c-0.4 13.1-2.2 25.4-5.1 36.3 9.7-1.3 19.4-3.2 29-5.5v0.1c4.6-9.4 7.5-19.9 8.2-30.9z"></path></g></g><g id="&lt;Group&gt;"><path id="&lt;Compound Path&gt;" fill-rule="evenodd" class="s0" d="m-790.9-103.5c0 5.6-4.5 10.2-10 10.2h-85.2c-5.6 0-10.1-4.6-10.1-10.2 0-5.6 4.5-10.2 10.1-10.2h1.9c-3.2-2.3-5.3-6.1-5.3-10.3v-39c0-6.9 5.6-12.5 12.4-12.5h67.1c6.9 0 12.4 5.6 12.4 12.5v39c0 4.2-2 8-5.2 10.3h1.9c5.5 0 10 4.6 10 10.2zm-89.1-20.5c0 1.6 1.3 3 2.9 3h67.1c1.6 0 3-1.4 3-3v-39c0-1.6-1.4-2.9-3-2.9h-67.1c-1.6 0-2.9 1.3-2.9 2.9zm79.7 20.5c0-0.3-0.3-0.6-0.6-0.6h-85.2c-0.3 0-0.6 0.3-0.6 0.6 0 0.4 0.3 0.6 0.6 0.6h85.2c0.3 0 0.6-0.2 0.6-0.6z"></path><path id="&lt;Compound Path&gt;" fill-rule="evenodd" class="s0" d="m-935.6-271.2c0 5.6-4.5 10.2-10 10.2h-85.2c-5.5 0-10.1-4.6-10.1-10.2 0-5.7 4.6-10.2 10.1-10.2h1.9c-3.2-2.3-5.3-6.1-5.3-10.3v-39c0-6.9 5.6-12.6 12.4-12.6h67.1c6.9 0 12.5 5.7 12.5 12.6v39c0 4.2-2.1 8-5.3 10.3h1.9c5.5 0 10 4.5 10 10.2zm-89.1-20.5c0 1.6 1.3 3 2.9 3h67.1c1.7 0 3-1.4 3-3v-39c0-1.6-1.3-3-3-3h-67.1c-1.6 0-2.9 1.4-2.9 3zm79.7 20.5c0-0.3-0.3-0.6-0.6-0.6h-85.2c-0.3 0-0.6 0.3-0.6 0.6 0 0.3 0.3 0.6 0.6 0.6h85.2c0.3 0 0.6-0.3 0.6-0.6z"></path><path id="&lt;Compound Path&gt;" fill-rule="evenodd" class="s1" d="m-818.7-218.3c0 15.3-3.4 29.8-9.6 42.8h-24.1q7.5-1.5 14.9-3.3v0.4c5.3-10.7 8.6-22.5 9.2-35.1h-35.5c-0.4 13.6-2.1 26.4-5 38h-8.3q-0.8 0-1.6 0.1c3.1-11.5 5-24.4 5.4-38.1h-38v44q12.3-0.2 24.5-1.2c-1.7 2.1-2.7 4.8-2.7 7.7v2.1q-10.9 0.9-21.8 1v30.2c8.2-2 15.7-8.9 21.8-19.3v25q0 0.4 0.1 0.7c-8.5 2.4-17.4 3.8-26.6 3.8-53.7 0-97.3-44.3-97.3-98.8 0-15.3 3.4-29.8 9.6-42.7h24.1q-7.4 1.4-14.9 3.2v-0.3c-5.3 10.6-8.6 22.5-9.2 35h35.5c0.4-13.6 2.1-26.4 5-37.9h9.9c-3.1 11.4-5 24.3-5.4 37.9h38v-44q-8.1 0.1-16.1 0.6c0.8-1.4 1.2-3 1.2-4.7 0-1.8-0.4-3.4-1.2-4.9q8-0.5 16.1-0.6v-30.1c-9.7 2.3-18.4 11.6-25.1 25.4h-1.7c3.2-2.3 5.3-6.1 5.3-10.3v-21.6c8.3-2.4 17.1-3.7 26.2-3.7 53.7 0 97.3 44.3 97.3 98.7zm-175.8 39.5c10.6 2.6 21.3 4.6 32 6.1-3.3-12.2-5.3-26-5.7-40.8h-35.5c0.6 12.6 3.9 24.4 9.2 35.1zm51.2 45.2c-6.4-7.3-12-17.2-16.2-29q-14.4-1.8-28.7-4.9c10.8 15.8 26.5 27.9 44.9 33.9zm22.5-26.3q-14-0.2-27.9-1.5c6.9 17.1 16.9 29 27.9 31.6zm0-53.6h-38c0.4 15.3 2.8 29.7 6.6 42.1q15.6 1.7 31.4 1.9zm9.5-63.2q13.9 0.2 27.8 1.5c-6.9-17.1-16.8-29-27.8-31.6zm37.9 53.6c-0.4-15.3-2.8-29.7-6.6-42.1q-15.6-1.7-31.3-1.9v44zm0.7-50.9q14.4 1.8 28.7 4.9c-10.8-15.8-26.6-27.9-44.9-34 6.4 7.4 12 17.3 16.2 29.1zm44.3 50.9c-0.7-12.6-3.9-24.4-9.2-35.1l-0.1 0.4c-10.5-2.6-21.2-4.6-31.9-6.1 3.3 12.3 5.3 26 5.6 40.8z"></path></g><g id="&lt;Group&gt;"><path id="&lt;Compound Path&gt;" fill-rule="evenodd" class="s1" d="m-334.8-229.4v31.3c0 13.8-11.3 25-25 25h-21.3v80h-10v-80h-21.3c-13.8 0-25-11.2-25-25v-31.3c0-7.7 5.8-14.1 13.3-14.9v-21.1h10v21h12v-21h10v21h12v-21h10v21h12v-21h10v21.1c7.4 0.8 13.3 7.2 13.3 14.9zm-10 0c0-2.8-2.3-5-5-5h-72.6c-2.8 0-5 2.2-5 5v31.3c0 8.3 6.7 15 15 15h52.6c8.2 0 15-6.7 15-15z"></path><g id="&lt;Group&gt;"><path id="&lt;Path&gt;" class="s0" d="m-290.1-251.8c0 17.6-14.3 31.9-31.9 31.9h-12.8v-9.5q0-0.3-0.1-0.5h12.9c12.1 0 21.9-9.9 21.9-21.9 0-10.4-7.4-19.5-17.6-21.5-2.6-0.5-4.3-3-4-5.6 0.2-1.2 0.3-2.2 0.3-3.1 0-12-9.8-21.8-21.9-21.8q-1.1 0-2.3 0.1c-2.4 0.2-4.6-1.3-5.3-3.6-4.6-15.4-19-26.2-35.2-26.2-16.1 0-30.5 10.8-35.1 26.2-0.7 2.3-2.9 3.8-5.3 3.6q-1.2-0.1-2.3-0.1c-12.1 0-21.9 9.8-21.9 21.8 0 0.9 0.1 1.9 0.2 3.1 0.4 2.6-1.4 5.1-4 5.6-10.2 2-17.7 11-17.7 21.5 0 12 9.9 21.9 21.9 21.9h12.9q0 0.2 0 0.5v9.5h-12.9c-17.6 0-31.9-14.3-31.9-31.9 0-13.8 8.8-25.8 21.5-30.2 0-17.3 13.9-31.5 31.2-31.8 6.9-17.7 24.3-29.7 43.4-29.7 19.2 0 36.6 12 43.5 29.7 17.3 0.3 31.2 14.5 31.2 31.8q0 0.1 0 0.1c12.6 4.4 21.3 16.4 21.3 30.1z"></path></g></g><g id="&lt;Group&gt;"><g id="&lt;Group&gt;"><g id="&lt;Group&gt;"><path id="&lt;Compound Path&gt;" fill-rule="evenodd" class="s1" d="m-828.3 202.3h-175.1c-13.8 0-25-11.2-25-25v-100.2c0-13.8 11.2-25 25-25h175.1c13.8 0 25 11.2 25 25v100.2c0 13.8-11.2 25-25 25zm-175.1-140.2c-8.3 0-15 6.7-15 15v100.2c0 8.3 6.7 15 15 15h175.1c8.2 0 15-6.7 15-15v-100.2c0-8.3-6.8-15-15-15z"></path></g><g id="&lt;Group&gt;"><path id="&lt;Compound Path&gt;" fill-rule="evenodd" class="s1" d="m-800.9 248.9h-230c-8.2 0-15-6.7-15-15v-7.8c0-8.3 6.8-15 15-15h230c8.3 0 15 6.7 15 15v7.8c0 8.3-6.7 15-15 15zm-230-27.8c-2.7 0-5 2.2-5 5v7.8c0 2.8 2.3 5 5 5h230c2.8 0 5-2.2 5-5v-7.8c0-2.8-2.2-5-5-5z"></path></g></g><g id="&lt;Group&gt;"><g id="&lt;Group&gt;"><path id="&lt;Path&gt;" class="s0" d="m-905.2 170.8c-5.9-5.9-15.5-5.9-21.3 0l-9.9-9.8c11.3-11.3 29.7-11.3 41.1 0z"></path></g><g id="&lt;Group&gt;"><path id="&lt;Path&gt;" class="s0" d="m-882.4 148c-18.5-18.4-48.5-18.4-66.9 0l-9.9-9.8c23.9-23.9 62.8-23.9 86.6 0z"></path></g><g id="&lt;Group&gt;"><path id="&lt;Path&gt;" class="s0" d="m-973 124.4l-9.8-9.8c36.9-36.9 97-36.9 133.9 0l-9.9 9.8c-31.4-31.5-82.7-31.5-114.2 0z"></path></g></g></g><g id="&lt;Group&gt;"><g id="&lt;Group&gt;"><path id="&lt;Compound Path&gt;" fill-rule="evenodd" class="s1" d="m273.6-159.4v28.5c0 13.8-11.2 25-25 25h-210c-13.8 0-25-11.2-25-25v-28.5c0-13.8 11.2-25 25-25h160.9v-43.3c-6.1-2.1-10.5-7.8-10.5-14.6 0-8.6 7-15.5 15.5-15.5 8.6 0 15.5 6.9 15.5 15.5 0 6.8-4.4 12.5-10.5 14.6v43.3h39.1c13.8 0 25 11.2 25 25zm-74.6-82.9c0 3 2.5 5.5 5.5 5.5 3 0 5.5-2.5 5.5-5.5 0-3.1-2.5-5.5-5.5-5.5-3 0-5.5 2.4-5.5 5.5zm64.6 82.9c0-8.3-6.7-15-15-15h-210c-8.3 0-15 6.7-15 15v28.5c0 8.3 6.7 15 15 15h210c8.3 0 15-6.7 15-15z"></path><path id="&lt;Path&gt;" class="s1" d="m43.1-150.1h75v10h-75z"></path><path id="&lt;Path&gt;" class="s1" d="m204.5-150.1h29.5v10h-29.5z"></path></g><g id="&lt;Group&gt;"><g id="&lt;Group&gt;"><path id="&lt;Path&gt;" class="s0" d="m212.2-270.3c-4.2-4.3-11.1-4.3-15.4 0l-7-7.1c8.1-8.1 21.3-8.1 29.5 0z"></path></g><g id="&lt;Group&gt;"><path id="&lt;Path&gt;" class="s0" d="m228.6-286.7c-13.3-13.3-34.9-13.3-48.1 0l-7.1-7.1c17.2-17.1 45.1-17.1 62.2 0z"></path></g><g id="&lt;Group&gt;"><path id="&lt;Path&gt;" class="s0" d="m163.5-303.7l-7.1-7c26.6-26.6 69.7-26.6 96.2 0l-7.1 7c-22.6-22.6-59.4-22.6-82 0z"></path></g></g></g><g id="&lt;Group&gt;"><g id="&lt;Group&gt;"><path id="&lt;Compound Path&gt;" fill-rule="evenodd" class="s0" d="m101 71.5h53.6c5.2 0 10 2 13.6 5.6l31.6 31.6c3.6 3.6 5.6 8.4 5.6 13.6v88c0 10.6-8.6 19.2-19.2 19.2h-85.2c-10.6 0-19.3-8.6-19.3-19.2l0.1-119.6c0-10.6 8.6-19.2 19.2-19.2zm53.6 10h-53.6c-5.1 0-9.2 4.1-9.2 9.2v119.6c0 5.1 4.1 9.2 9.2 9.2h85.2c5.1 0 9.2-4.1 9.2-9.2v-88c0-2.5-0.9-4.8-2.7-6.6l-31.5-31.5c-1.8-1.8-4.1-2.7-6.6-2.7z"></path><path id="&lt;Path&gt;" class="s0" d="m172.4 121.1h-57.6v-10h57.6z"></path><path id="&lt;Path&gt;" class="s0" d="m172.4 155.5h-57.6v-10h57.6z"></path><path id="&lt;Path&gt;" class="s0" d="m172.4 189.9h-57.6v-10h57.6z"></path></g><g id="&lt;Group&gt;"><path id="&lt;Path&gt;" class="s1" d="m171.8 52.6l-13.3-7.7c-4.2-2.4-4.2-8.6 0-11l13.3-7.7c4.2-2.4 9.5 0.6 9.5 5.6v6c39.1 13.1 69.2 46.1 78.3 86.9l-9.8 2.1c-8-36.2-34.3-65.8-68.6-78.4-0.9 4.1-5.6 6.4-9.4 4.2z"></path><path id="&lt;Path&gt;" class="s1" d="m26.9 135.9l-7.6-13.2c-2.4-4.2 0.6-9.6 5.6-9.6h5.9c13-39.2 46.1-69.5 87-78.6l2.1 9.8c-36.4 8-66 34.5-78.6 69 4.2 0.8 6.6 5.5 4.3 9.4l-7.6 13.2c-2.4 4.3-8.6 4.3-11.1 0z"></path><path id="&lt;Path&gt;" class="s1" d="m135.4 267.2l-13.2 7.6c-4.3 2.4-9.6-0.6-9.6-5.6v-4c-42.4-11.4-75.4-45.8-85-88.9l9.8-2.1c8.5 38.5 37.7 69.5 75.2 80.6v-0.8c0-4.9 5.3-8 9.6-5.6l13.2 7.7c4.3 2.4 4.3 8.6 0 11.1z"></path><path id="&lt;Path&gt;" class="s1" d="m262.3 188.2h-6c-13.1 39.2-46.1 69.3-86.9 78.3l-2.1-9.8c36.2-8 65.8-34.3 78.4-68.6-4.1-0.9-6.4-5.6-4.2-9.4l7.7-13.3c2.4-4.2 8.6-4.2 11 0l7.7 13.3c2.4 4.2-0.6 9.5-5.6 9.5z"></path></g></g></g></g></svg>