<svg xmlns="http://www.w3.org/2000/svg" viewBox="0 0 169 169" width="169" height="169"><title>Internet Icons-svg</title><style>		.s0 { fill: #1c75bc } 		.s1 { fill: #545662 } 	</style><g id="Layer"><g id="Layer"><path id="Layer" fill-rule="evenodd" class="s0" d="m671.7-41.9c-4.8 4.8-11 7.2-17.3 7.2-6.3 0-12.5-2.4-17.3-7.2l-11.8-11.8c-9.6-9.5-9.6-25 0-34.6 9.5-9.6 25-9.6 34.6 0l11.8 11.8c9.5 9.5 9.5 25.1 0 34.6zm-41.1-44.5l11.9 11.9 11.9-11.9c-3.5-2.7-7.7-4.1-11.9-4.1-4.2 0-8.4 1.4-11.9 4.1zm-3.5 27.3l11.9-11.9-11.9-11.9c-5.4 7-5.4 16.8 0 23.8zm41-13.9l-10-10-27.6 27.6 10 10c7.6 7.6 20 7.6 27.6 0 7.6-7.6 7.6-20 0-27.6z"></path><g id="Layer"><path id="Layer" fill-rule="evenodd" class="s1" d="m639.2-39.8c-7.8 3.3-16.4 5.2-25.4 5.2-35.8 0-65-29.2-65-65 0-35.8 29.2-65 65-65 35.8 0 65 29.2 65 65 0 9-1.9 17.6-5.2 25.4-0.6-0.8-1.2-1.5-1.9-2.2l-1.9-1.9c2.3-5.9 3.6-12.3 3.9-18.9h-25.4c0 0.9-0.1 1.7-0.1 2.5-1.7-0.4-3.3-0.7-5-0.7 0.1-0.6 0.1-1.2 0.1-1.8h-27v30.7c0.7-0.1 1.5-0.1 2.2-0.1 0.3 1.7 0.7 3.4 1.4 5-1.2 0.1-2.4 0.1-3.6 0.1v21.6c4.9-0.9 9.4-4.3 13.3-9.4l3.6 3.6c-1.1 1.4-2.2 2.7-3.4 3.8q2.9-0.8 5.4-1.8l1.8 1.8c0.7 0.7 1.4 1.3 2.2 2.1zm27.7-86.9c-7.5-1.8-15.1-3.2-22.7-4.2 2.5 8.6 3.9 18.3 4.1 28.7h25.4c-0.4-9-2.8-17.5-6.7-25.1zm-37.2-30.9c5.2 5 9.6 12.4 12.8 21.4 7.2 0.9 14.4 2.1 21.5 3.7-7.9-12.1-20-21.1-34.3-25.1zm-13.4 19.7c6.8 0.1 13.7 0.4 20.5 1.1-4.9-12.6-12.3-21.2-20.5-22.7zm0 35.6h27c-0.2-10.6-1.9-20.7-4.6-29.3-7.4-0.8-14.9-1.2-22.4-1.3zm-52.9-30.2c7.1-1.6 14.3-2.8 21.5-3.7 3.2-9 7.6-16.4 12.8-21.4-14.2 4-26.3 13-34.3 25.1zm-9.6 30.3h25.4c0.2-10.5 1.7-20.2 4.1-28.7-7.7 1-15.2 2.4-22.7 4.2l-0.1-0.6c-3.9 7.5-6.3 16-6.7 25.1zm6.8 29.4c7.5 1.8 15.1 3.2 22.7 4.2-2.5-8.6-3.9-18.3-4.1-28.7h-25.4c0.4 9 2.8 17.5 6.7 25.1zm37.2 30.8c-5.2-5-9.6-12.4-12.8-21.4-7.2-0.9-14.4-2.1-21.5-3.7 7.9 12.1 20 21.2 34.3 25.1zm13.5-19.6c-6.8-0.1-13.7-0.4-20.5-1.1 4.9 12.6 12.3 21.2 20.5 22.7zm0-35.6h-27c0.2 10.6 1.9 20.7 4.6 29.3 7.4 0.8 14.9 1.2 22.4 1.3zm0-35.7c-7.5 0-15 0.5-22.4 1.3-2.7 8.6-4.4 18.6-4.6 29.3h27zm0-26.6c-8.2 1.5-15.5 10.1-20.5 22.7 6.8-0.7 13.6-1 20.5-1.1z"></path></g></g><g id="Layer"><g id="Layer"><path id="Layer" fill-rule="evenodd" class="s1" d="m380.3-34.7h-62.7c-6.9 0-12.5-5.6-12.5-12.5v-105c0-6.9 5.6-12.5 12.5-12.5h62.7c6.9 0 12.5 5.6 12.5 12.5v105c0 6.8-5.6 12.5-12.5 12.5zm-62.7-125c-4.1 0-7.5 3.4-7.5 7.5v105c0 4.1 3.4 7.5 7.5 7.5h62.7c4.1 0 7.5-3.4 7.5-7.5v-105c0-4.1-3.4-7.5-7.5-7.5z"></path></g><g id="Layer"><path id="Layer" fill-rule="evenodd" class="s1" d="m377.5-52.5h-57.2c-4.1 0-7.5-3.4-7.5-7.5v-79.5c0-4.1 3.4-7.5 7.5-7.5h57.2c4.1 0 7.5 3.4 7.5 7.5v79.5c0 4.1-3.3 7.5-7.5 7.5zm-57.2-89.5c-1.4 0-2.5 1.1-2.5 2.5v79.5c0 1.4 1.1 2.5 2.5 2.5h57.2c1.4 0 2.5-1.1 2.5-2.5v-79.5c0-1.4-1.1-2.5-2.5-2.5z"></path></g><g id="Layer"><path id="Layer" class="s1" d="m340-48.4h17.9v5h-17.9z"></path></g><g id="Layer"><g id="Layer"><path id="Layer" class="s0" d="m352.8-85c-2.1-2.1-5.6-2.1-7.7 0l-3.5-3.5c4.1-4.1 10.7-4.1 14.7 0z"></path></g><g id="Layer"><path id="Layer" class="s0" d="m361-93.2c-6.6-6.6-17.4-6.6-24 0l-3.5-3.5c8.6-8.6 22.5-8.6 31.1 0z"></path></g><g id="Layer"><path id="Layer" class="s0" d="m328.4-101.7l-3.5-3.5c13.3-13.3 34.8-13.3 48.1 0l-3.5 3.5c-11.4-11.3-29.8-11.3-41.1 0z"></path></g></g></g><g id="Layer"><g id="Layer"><g id="Layer"><path id="Layer" fill-rule="evenodd" class="s1" d="m127.8-73.9h-87.5c-6.9 0-12.5-5.6-12.5-12.5v-50c0-6.9 5.6-12.5 12.5-12.5h87.5c6.9 0 12.5 5.6 12.5 12.5v50.1c0 6.8-5.6 12.4-12.5 12.4zm-87.5-70c-4.1 0-7.5 3.4-7.5 7.5v50.1c0 4.1 3.4 7.5 7.5 7.5h87.5c4.1 0 7.5-3.4 7.5-7.5v-50.1c0-4.1-3.4-7.5-7.5-7.5z"></path></g></g><g id="Layer"><g id="Layer"><path id="Layer" fill-rule="evenodd" class="s1" d="m141.6-50.5h-115c-4.1 0-7.5-3.4-7.5-7.5v-4c0-4.1 3.4-7.5 7.5-7.5h115c4.1 0 7.5 3.4 7.5 7.5v3.9c0 4.2-3.4 7.6-7.5 7.6zm-115-14c-1.4 0-2.5 1.1-2.5 2.5v3.9c0 1.4 1.1 2.5 2.5 2.5h115c1.4 0 2.5-1.1 2.5-2.5v-3.9c0-1.4-1.1-2.5-2.5-2.5z"></path></g></g><g id="Layer"><path id="Layer" fill-rule="evenodd" class="s0" d="m104.2-91.1h-40.3c-6 0-10.9-4.9-10.9-10.9 0-4.5 2.7-8.5 6.8-10.1 0.3-5.5 4.6-9.8 10.1-10.3 2.5-5.6 8.1-9.3 14.3-9.3 6.2 0 11.8 3.8 14.3 9.3 5.4 0.4 9.8 4.8 10.1 10.3 4 1.7 6.7 5.6 6.7 10.1-0.1 6-5 10.9-11.1 10.9zm-33.5-26.3c-3.3 0-5.9 2.7-5.9 5.9 0 0.2 0 0.5 0.1 0.8 0.2 1.3-0.7 2.5-2 2.8-2.8 0.5-4.8 3-4.8 5.8 0 3.3 2.7 5.9 5.9 5.9h40.3c3.3 0 5.9-2.7 5.9-5.9 0-2.8-2-5.3-4.8-5.8-1.3-0.3-2.2-1.5-2-2.8 0-0.3 0.1-0.6 0.1-0.8 0-3.3-2.7-5.9-5.9-5.9q-0.3 0-0.6 0c-1.2 0.1-2.3-0.6-2.7-1.8-1.3-4.5-5.5-7.6-10.2-7.6-4.7 0-8.8 3.1-10.2 7.6-0.3 1.2-1.5 1.9-2.7 1.8-0.1 0-0.3 0-0.5 0z"></path></g></g><g id="Layer"><g id="Layer"><path id="Layer" fill-rule="evenodd" class="s0" d="m291.6 304v-41.4c0-6 4.9-10.8 10.8-10.8h72.4c6 0 10.8 4.9 10.8 10.8v41.4c0 6-4.9 10.8-10.8 10.8h-72.4c-5.9 0-10.8-4.8-10.8-10.8zm5 0c0 3.2 2.6 5.8 5.8 5.8h72.4c3.2 0 5.8-2.6 5.8-5.8v-41.4c0-3.2-2.6-5.8-5.8-5.8h-72.4c-3.2 0-5.8 2.6-5.8 5.8z"></path><path id="Layer" fill-rule="evenodd" class="s0" d="m392.8 324.9v1.8c0 4.1-3.3 7.4-7.4 7.4h-93.6c-4.1 0-7.4-3.3-7.4-7.4v-1.8c0-4.1 3.3-7.4 7.4-7.4h93.6c4.1 0 7.4 3.3 7.4 7.4zm-5 0c0-1.3-1.1-2.4-2.4-2.4h-93.6c-1.3 0-2.4 1.1-2.4 2.4v1.8c0 1.3 1.1 2.4 2.4 2.4h93.6c1.3 0 2.4-1.1 2.4-2.4z"></path></g><g id="Layer"><path id="Layer" fill-rule="evenodd" class="s1" d="m413.4 249.7c0 18.9-11.5 35.2-27.9 42.2v-5.5c6.1-3 11.3-7.4 15.2-12.8q-6.3 1.4-12.6 2.1c-0.8 2.1-1.7 4.1-2.6 5.9v-15.1c1-4.4 1.6-9.2 1.8-14.2h-9.3c-1-0.3-2.1-0.5-3.2-0.5h-52.9c-0.1-0.7-0.1-1.3-0.1-2 0-25.3 20.5-45.8 45.8-45.8 25.3 0 45.8 20.6 45.8 45.7zm-67.8-20.6c-4.9 0.6-9.7 1.6-14.5 2.7-2.3 4.8-3.8 10-4.1 15.5h16c0.1-6.5 1-12.7 2.6-18.2zm1.6-5.2c1.8-5 4.2-9.2 6.9-12.5-7.9 2.8-14.7 7.9-19.5 14.6q6.1-1.3 12.6-2.1zm18 23.4v-19.7c-4.7 0.1-9.5 0.4-14.2 0.9-1.7 5.5-2.8 12-3 18.8zm-0.1-38c-4.8 1.3-9.2 6.5-12.3 13.9q6.2-0.4 12.3-0.6zm5 13.4q6.2 0 12.3 0.6c-3.1-7.4-7.5-12.6-12.3-13.9zm17.2 24.6c-0.2-6.8-1.3-13.2-3-18.8-4.7-0.5-9.5-0.8-14.2-0.9v19.7zm13.4-21.3c-4.8-6.6-11.6-11.8-19.5-14.6 2.7 3.2 5.1 7.5 6.9 12.5q6.3 0.8 12.6 2.1zm-10.8 3.1c1.4 5.5 2.3 11.7 2.5 18.2h16c-0.3-5.5-1.8-10.7-4.1-15.4-4.8-1.2-9.7-2.1-14.4-2.8zm18.4 23.2h-16c-0.1 6.6-1 12.7-2.5 18.2 4.9-0.7 9.7-1.6 14.5-2.7 2.3-4.7 3.7-10 4-15.5z"></path></g></g><g id="Layer"><path id="Layer" fill-rule="evenodd" class="s0" d="m146.5 142c0 2.8-2.2 5.1-5 5.1h-42.6c-2.7 0-5-2.3-5-5.1 0-2.8 2.2-5.1 5-5.1h0.9c-1.6-1.1-2.6-3-2.6-5.1v-19.5c0-3.5 2.8-6.3 6.2-6.3h33.6c3.4 0 6.2 2.8 6.2 6.3v19.5c0 2.1-1 4-2.6 5.1h0.9c2.8 0 5.1 2.3 5 5.1zm-44.6-29.7v19.5c0 0.8 0.7 1.5 1.5 1.5h33.6c0.8 0 1.5-0.7 1.5-1.5v-19.5c0-0.8-0.7-1.5-1.5-1.5h-33.5c-0.8 0-1.5 0.7-1.5 1.5zm39.9 29.7q0-0.3-0.3-0.3h-42.6q-0.3 0-0.3 0.3 0 0.3 0.3 0.3h42.6q0.3 0 0.3-0.3z"></path><path id="Layer" fill-rule="evenodd" class="s0" d="m74.2 58.2c0 2.8-2.2 5.1-5 5.1h-42.6c-2.7 0-5-2.3-5-5.1 0-2.8 2.2-5.1 5-5.1h0.9c-1.6-1.1-2.6-3-2.6-5.1v-19.5c0-3.5 2.8-6.3 6.2-6.3h33.6c3.4 0 6.2 2.8 6.2 6.3v19.5c0 2.1-1 4-2.6 5.1h0.9c2.8 0 5 2.2 5 5.1zm-44.5-10.3c0 0.8 0.7 1.5 1.5 1.5h33.6c0.8 0 1.5-0.7 1.5-1.5v-19.5c0-0.8-0.7-1.5-1.5-1.5h-33.6c-0.8 0-1.5 0.7-1.5 1.5zm39.8 10.3q0-0.3-0.3-0.3h-42.6q-0.3 0-0.3 0.3 0 0.3 0.3 0.3h42.6q0.3 0 0.3-0.3z"></path><path id="Layer" fill-rule="evenodd" class="s1" d="m132.7 84.3c0 7.7-1.7 14.9-4.8 21.4h-12.1c2.4-0.5 4.9-1 7.4-1.6v0.2c2.6-5.3 4.3-11.2 4.6-17.5h-17.8c-0.2 6.8-1.1 13.2-2.5 19h-4.2c-0.3 0-0.5 0.1-0.8 0.1 1.5-5.7 2.5-12.2 2.7-19h-19v22c4.1 0 8.1-0.2 12.2-0.6-0.8 1.1-1.3 2.4-1.3 3.9v1.1c-3.6 0.3-7.3 0.4-10.9 0.5v15.1c4.1-1 7.8-4.4 10.9-9.6 0 0.2 0 12.8 0 12.9-4.2 1.2-8.7 1.9-13.3 1.9-26.9 0-48.7-22.2-48.7-49.4 0-7.7 1.7-14.9 4.8-21.4h12.1c-2.4 0.5-4.9 1-7.4 1.6v-0.2c-2.6 5.3-4.3 11.2-4.6 17.5h17.8c0.2-6.8 1.1-13.2 2.5-19h5c-1.6 5.8-2.5 12.2-2.7 19h19v-22c-2.7 0-5.3 0.1-8 0.3q0.6-1 0.6-2.4 0-1.3-0.6-2.4c2.6-0.2 5.3-0.3 8-0.3v-15.1c-4.8 1.2-9.2 5.8-12.5 12.7h-0.8c1.6-1.1 2.6-3 2.6-5.1v-10.8c4.2-1.1 8.6-1.8 13.1-1.8 26.8 0 48.7 22.1 48.7 49zm-88 20.2c5.3 1.2 10.6 2.2 16 3-1.6-6.1-2.6-13-2.8-20.4h-17.8c0.3 6.2 2 12.2 4.6 17.5zm25.7 22.5c-3.2-3.6-6-8.6-8.1-14.5-4.8-0.7-9.6-1.5-14.4-2.5 5.4 7.9 13.3 14 22.5 17zm11.2-13.1c-4.6-0.1-9.3-0.4-13.9-0.8 3.4 8.5 8.4 14.5 13.9 15.8zm0-26.9h-19c0.2 7.6 1.4 14.8 3.3 21 5.2 0.6 10.5 0.9 15.7 1zm4.8-31.6c4.6 0.1 9.3 0.4 13.9 0.8-3.4-8.5-8.4-14.5-13.9-15.8zm19 26.8c-0.2-7.6-1.4-14.8-3.3-21-5.2-0.6-10.5-0.9-15.7-1v22zm0.3-25.4c4.8 0.7 9.6 1.5 14.4 2.5-5.4-7.9-13.3-14-22.5-17 3.2 3.6 6 8.6 8.1 14.5zm4.4 25.3h17.8c-0.3-6.2-2-12.2-4.6-17.5v0.2c-5.3-1.2-10.6-2.2-16-3 1.6 6.1 2.6 13 2.8 20.4z"></path></g><g id="Layer"><path id="Layer" fill-rule="evenodd" class="s1" d="m374.5 79v15.7c0 6.9-5.6 12.5-12.5 12.5h-10.6v40h-5v-40h-10.6c-6.9 0-12.5-5.6-12.5-12.5v-15.7c0-3.8 2.9-7 6.6-7.4v-10.6h5v10.5h6v-10.5h5v10.5h6v-10.5h5v10.5h6v-10.5h5v10.6c3.8 0.4 6.7 3.6 6.6 7.4zm-4.9 0c0-1.4-1.1-2.5-2.5-2.5h-36.3c-1.4 0-2.5 1.1-2.5 2.5v15.7c0 4.1 3.4 7.5 7.5 7.5h26.3c4.1 0 7.5-3.4 7.5-7.5z"></path><g id="Layer"><path id="Layer" class="s0" d="m397.1 67.8c0 8.7-7.1 15.9-15.9 15.9h-6.4v-4.7q0-0.2 0-0.3h6.4c6 0 10.9-4.9 10.9-10.9 0-5.2-3.7-9.7-8.8-10.7-1.3-0.3-2.2-1.5-2-2.8 0.1-0.6 0.1-1 0.1-1.5 0-6-4.9-10.9-10.9-10.9-0.3 0-0.7 0.1-1.1 0.1-1.2 0.1-2.4-0.6-2.7-1.8-2.3-7.7-9.5-13.1-17.6-13.1-8.1 0-15.3 5.4-17.6 13.1-0.4 1.2-1.5 1.9-2.7 1.8-0.3-0.1-0.7-0.1-1.1-0.1-6 0-10.9 4.9-10.9 10.9 0 0.4 0 0.9 0.1 1.5 0.2 1.3-0.7 2.5-2 2.8-5.2 1-8.9 5.5-8.9 10.7 0 6 4.9 10.9 10.9 10.9h6.4q0 0.1 0 0.3v4.7h-6.4c-8.7 0-15.9-7.1-15.9-15.9 0-6.9 4.4-12.9 10.7-15.1 0-8.6 7-15.7 15.6-15.9 3.4-8.8 12.1-14.8 21.7-14.8 9.6 0 18.2 6 21.7 14.8 8.6 0.2 15.6 7.3 15.6 16 6.3 2.2 10.6 8.2 10.8 15z"></path></g></g><g id="Layer"><g id="Layer"><g id="Layer"><path id="Layer" fill-rule="evenodd" class="s1" d="m127.8 294.9h-87.5c-6.9 0-12.5-5.6-12.5-12.5v-50.1c0-6.9 5.6-12.5 12.5-12.5h87.5c6.9 0 12.5 5.6 12.5 12.5v50.1c0 6.9-5.6 12.5-12.5 12.5zm-87.5-70.1c-4.1 0-7.5 3.4-7.5 7.5v50.1c0 4.1 3.4 7.5 7.5 7.5h87.5c4.1 0 7.5-3.4 7.5-7.5v-50.1c0-4.1-3.4-7.5-7.5-7.5z"></path></g><g id="Layer"><path id="Layer" fill-rule="evenodd" class="s1" d="m141.6 318.2h-115c-4.1 0-7.5-3.4-7.5-7.5v-3.9c0-4.1 3.4-7.5 7.5-7.5h115c4.1 0 7.5 3.4 7.5 7.5v3.9c0 4.2-3.4 7.5-7.5 7.5zm-115-13.9c-1.4 0-2.5 1.1-2.5 2.5v3.9c0 1.4 1.1 2.5 2.5 2.5h115c1.4 0 2.5-1.1 2.5-2.5v-3.9c0-1.4-1.1-2.5-2.5-2.5z"></path></g></g><g id="Layer"><g id="Layer"><path id="Layer" class="s0" d="m89.4 279.2c-2.9-2.9-7.7-2.9-10.7 0l-4.9-4.9c5.7-5.7 14.9-5.7 20.5 0z"></path></g><g id="Layer"><path id="Layer" class="s0" d="m100.8 267.8c-9.2-9.2-24.2-9.2-33.5 0l-4.9-4.9c11.9-11.9 31.4-11.9 43.3 0z"></path></g><g id="Layer"><path id="Layer" class="s0" d="m55.5 256l-4.9-4.9c18.5-18.5 48.5-18.5 66.9 0l-4.9 4.9c-15.7-15.8-41.3-15.8-57.1 0z"></path></g></g></g><g id="Layer"><g id="Layer"><path id="Layer" fill-rule="evenodd" class="s1" d="m678.8 114.1v14.2c0 6.9-5.6 12.5-12.5 12.5h-105c-6.9 0-12.5-5.6-12.5-12.5v-14.2c0-6.9 5.6-12.5 12.5-12.5h80.5v-21.7c-3-1-5.2-3.9-5.2-7.3 0-4.2 3.5-7.7 7.7-7.7 4.2 0 7.7 3.4 7.7 7.7 0 3.4-2.2 6.3-5.2 7.3v21.7h19.5c6.9 0 12.5 5.6 12.5 12.5zm-37.2-41.5c0 1.5 1.2 2.7 2.7 2.7 1.5 0 2.7-1.2 2.7-2.7 0-1.5-1.2-2.7-2.7-2.7-1.6 0-2.7 1.2-2.7 2.7zm32.2 41.5c0-4.1-3.4-7.5-7.5-7.5h-105c-4.1 0-7.5 3.4-7.5 7.5v14.2c0 4.1 3.4 7.5 7.5 7.5h105c4.1 0 7.5-3.4 7.5-7.5z"></path><path id="Layer" class="s1" d="m563.5 118.7h37.5v5h-37.5z"></path><path id="Layer" class="s1" d="m644.3 118.7h14.7v5h-14.7z"></path></g><g id="Layer"><g id="Layer"><path id="Layer" class="s0" d="m648.1 58.6c-2.1-2.1-5.6-2.1-7.7 0l-3.5-3.5c4.1-4.1 10.7-4.1 14.7 0z"></path></g><g id="Layer"><path id="Layer" class="s0" d="m656.3 50.4c-6.6-6.6-17.4-6.6-24 0l-3.5-3.5c8.6-8.6 22.5-8.6 31.1 0z"></path></g><g id="Layer"><path id="Layer" class="s0" d="m623.8 41.9l-3.5-3.5c13.3-13.3 34.8-13.3 48.1 0l-3.5 3.5c-11.4-11.3-29.8-11.3-41.1 0z"></path></g></g></g><g id="Layer"><g id="Layer"><path id="Layer" fill-rule="evenodd" class="s0" d="m592.5 229.5h26.8c2.6 0 5 1 6.8 2.8l15.8 15.8c1.8 1.8 2.8 4.2 2.8 6.8v44c0 5.3-4.3 9.6-9.6 9.6h-42.6c-5.3 0-9.6-4.3-9.6-9.6v-59.8c0-5.3 4.3-9.6 9.6-9.6zm26.9 5.1h-26.8c-2.5 0-4.6 2-4.6 4.6v59.8c0 2.5 2 4.6 4.6 4.6h42.6c2.5 0 4.6-2 4.6-4.6v-44c0-1.3-0.5-2.4-1.4-3.3l-15.8-15.8c-0.9-0.9-2-1.4-3.2-1.3z"></path><path id="Layer" class="s0" d="m599.4 249.4h28.8v5h-28.8z"></path><path id="Layer" class="s0" d="m599.4 266.5h28.8v5h-28.8z"></path><path id="Layer" class="s0" d="m599.4 283.7h28.8v5h-28.8z"></path></g><g id="Layer"><path id="Layer" class="s1" d="m627.9 220l-6.6-3.8c-2.1-1.2-2.1-4.3 0-5.5l6.6-3.8c2.1-1.2 4.8 0.3 4.8 2.8v3c19.5 6.5 34.6 23 39.1 43.4l-4.9 1.1c-4-18.1-17.1-32.9-34.3-39.2-0.4 2-2.8 3.2-4.7 2z"></path><path id="Layer" class="s1" d="m555.3 261.8l-3.8-6.6c-1.2-2.1 0.3-4.8 2.8-4.8h3c6.5-19.6 23-34.8 43.5-39.3l1.1 4.9c-18.2 4-33 17.2-39.3 34.5 2.1 0.4 3.3 2.8 2.2 4.7l-3.8 6.6c-1.2 2.1-4.3 2.1-5.7 0z"></path><path id="Layer" class="s1" d="m609.7 327.4l-6.6 3.8c-2.1 1.2-4.8-0.3-4.8-2.8v-2c-21.2-5.7-37.7-22.9-42.5-44.4l4.9-1.1c4.3 19.3 18.8 34.7 37.6 40.3v-0.4c0-2.5 2.7-4 4.8-2.8l6.6 3.8c2.1 1.2 2.1 4.3 0 5.6z"></path><path id="Layer" class="s1" d="m673.2 287.9h-3c-6.5 19.5-23 34.6-43.4 39.1l-1.1-4.9c18.1-4 32.9-17.1 39.2-34.3-2.1-0.4-3.2-2.8-2.1-4.7l3.8-6.6c1.2-2.1 4.3-2.1 5.5 0l3.8 6.6c1.3 2.1-0.3 4.8-2.7 4.8z"></path></g></g></g></svg>